<?xml version="1.0" encoding="utf-8"?>
<!-- Generator: Adobe Illustrator 26.0.3, SVG Export Plug-In . SVG Version: 6.00 Build 0)  -->
<svg version="1.1" id="Art" xmlns="http://www.w3.org/2000/svg" xmlns:xlink="http://www.w3.org/1999/xlink" x="0px" y="0px"
	 viewBox="0 0 219.1 161.8" style="enable-background:new 0 0 219.1 161.8;" xml:space="preserve">
<style type="text/css">
	.st0{fill:#043673;}
</style>
<path class="st0" d="M0,137.8l2.1-2.5c1.3,1.2,3,1.9,4.8,2c1.5,0,2.3-0.6,2.3-1.5v-0.1c0-0.9-0.5-1.4-3.2-2
	c-3.2-0.8-5.3-1.7-5.3-4.9l0,0c0-2.9,2.3-4.9,5.6-4.9c2.2-0.1,4.3,0.7,6,2l-1.8,2.7c-1.2-1-2.7-1.5-4.2-1.6c-1.3,0-2.1,0.6-2.1,1.4
	l0,0c0,1.1,0.7,1.4,3.5,2.1c3.3,0.9,5.1,2,5.1,4.8v0.1c0,3.2-2.4,5-5.9,5C4.3,140.4,1.9,139.4,0,137.8z"/>
<path class="st0" d="M25.6,123.9h3.3l6.9,16.2H32l-1.5-3.6h-6.8l-1.5,3.6h-3.6L25.6,123.9z M29.3,133.4l-2.1-5.2l-2.1,5.2H29.3z"/>
<path class="st0" d="M42.8,124.1H55v3.2h-8.7v3.4H54v3.2h-7.7v6.2h-3.5V124.1z"/>
<path class="st0" d="M62.5,124.1h12.1v3.1H66v3.3h7.6v3.1H66v3.4h8.7v3.1H62.5V124.1z"/>
<path class="st0" d="M93.9,124.1h3.5v6.4h6.5v-6.4h3.5v16.1H104v-6.4h-6.5v6.4h-3.5V124.1z"/>
<path class="st0" d="M121.5,123.9h3.3l6.9,16.2H128l-1.5-3.6h-6.8l-1.5,3.6h-3.6L121.5,123.9z M125.2,133.4l-2.1-5.2l-2.1,5.2H125.2
	z"/>
<path class="st0" d="M138.7,124.1h7.4c1.7-0.1,3.4,0.5,4.7,1.6c1,1,1.5,2.3,1.4,3.7l0,0c0.1,2.3-1.3,4.3-3.4,5l3.9,5.7h-4.2
	l-3.4-5.1h-2.8v5.1h-3.5L138.7,124.1z M145.9,131.9c1.7,0,2.7-0.9,2.7-2.3v-0.1c0-1.5-1.1-2.3-2.8-2.3h-3.5v4.6L145.9,131.9z"/>
<path class="st0" d="M159.9,124.1h7.5c1.5-0.1,3,0.4,4.2,1.4c0.7,0.7,1.1,1.7,1.1,2.7l0,0c0.1,1.5-0.8,2.9-2.1,3.6
	c1.9,0.7,3,1.8,3,3.9v0.1c0,2.9-2.4,4.4-6,4.4h-7.6L159.9,124.1z M169.2,128.8c0-1-0.8-1.6-2.3-1.6h-3.5v3.4h3.3
	C168.2,130.5,169.2,130,169.2,128.8L169.2,128.8z M167.5,133.5h-4.1v3.5h4.2c1.6,0,2.5-0.6,2.5-1.8l0,0
	C170.1,134.2,169.3,133.5,167.5,133.5L167.5,133.5z"/>
<path class="st0" d="M180.4,132.2L180.4,132.2c0-4.6,3.7-8.3,8.3-8.3c0.1,0,0.2,0,0.3,0c4.5-0.2,8.4,3.4,8.5,8c0,0.1,0,0.2,0,0.3
	v0.1c-0.2,4.7-4.1,8.4-8.8,8.3C184.2,140.2,180.6,136.6,180.4,132.2z M193.8,132.2L193.8,132.2c0.1-2.7-2-5-4.7-5
	c-0.1,0-0.1,0-0.2,0c-2.7,0-4.8,2.1-4.8,4.8c0,0.1,0,0.1,0,0.2v0.1c-0.1,2.7,2,5,4.7,5.1c0.1,0,0.1,0,0.2,0c2.7,0,4.8-2.1,4.8-4.8
	C193.8,132.3,193.8,132.2,193.8,132.2z"/>
<path class="st0" d="M205.2,124.1h7.4c1.7-0.1,3.4,0.5,4.7,1.6c0.9,1,1.4,2.3,1.4,3.7l0,0c0.1,2.3-1.3,4.3-3.4,5l3.9,5.7H215
	l-3.4-5.1h-2.8v5.1h-3.5V124.1z M212.3,131.9c1.7,0,2.7-0.9,2.7-2.3v-0.1c0-1.5-1.1-2.3-2.8-2.3h-3.5v4.6L212.3,131.9z"/>
<path class="st0" d="M52.8,153.6h2l2.2,3.5l2.2-3.5h1.9v8.2h-1.9v-5.4l-2.3,3.5l0,0l-2.3-3.5v5.3h-1.8V153.6z"/>
<path class="st0" d="M69.8,153.6h1.7l3.5,8.3h-1.9l-0.8-1.8h-3.5l-0.8,1.8h-1.9L69.8,153.6z M71.7,158.4l-1.1-2.6l-1.1,2.7
	L71.7,158.4z"/>
<path class="st0" d="M80.2,153.6H84c0.9-0.1,1.7,0.2,2.4,0.8c0.5,0.5,0.7,1.2,0.7,1.9l0,0c0.1,1.1-0.7,2.2-1.8,2.6l2,2.9h-2.1
	l-1.8-2.6H82v2.6h-1.8V153.6z M83.8,157.6c0.9,0,1.4-0.5,1.4-1.2l0,0c0-0.8-0.5-1.2-1.4-1.2H82v2.4L83.8,157.6z"/>
<path class="st0" d="M92.8,153.6h1.8v8.2h-1.8V153.6z"/>
<path class="st0" d="M100.6,153.6h1.7l3.9,5.1v-5.1h1.8v8.2h-1.5l-4-5.2v5.2h-1.8L100.6,153.6z"/>
<path class="st0" d="M116.7,153.6h1.7l3.5,8.3H120l-0.8-1.8h-3.5l-0.8,1.8h-1.8L116.7,153.6z M118.6,158.4l-1.1-2.6l-1.1,2.7
	L118.6,158.4z"/>
<path class="st0" d="M134.6,153.6h3.8c0.8,0,1.6,0.2,2.1,0.7c0.4,0.4,0.6,0.9,0.6,1.4l0,0c0,0.8-0.4,1.4-1.1,1.8
	c0.9,0.2,1.6,1.1,1.5,2l0,0c0,1.5-1.2,2.2-3.1,2.2h-3.9L134.6,153.6z M139.4,156.1c0-0.5-0.4-0.9-1.2-0.9h-1.8v1.7h1.7
	C138.9,156.9,139.4,156.7,139.4,156.1L139.4,156.1z M138.5,158.4h-2.1v1.8h2.1c0.8,0,1.3-0.3,1.3-0.9l0,0
	C139.8,158.8,139.4,158.4,138.5,158.4z"/>
<path class="st0" d="M149.9,153.6h1.7l3.5,8.3h-1.9l-0.8-1.8H149l-0.8,1.8h-1.8L149.9,153.6z M151.8,158.4l-1.1-2.6l-1.1,2.7
	L151.8,158.4z"/>
<path class="st0" d="M161.4,158.6l-3.2-5h2.1l2,3.3l2-3.3h2l-3.1,5v3.3h-1.8L161.4,158.6z"/>
<rect x="0.7" y="157.1" class="st0" width="46.1" height="1"/>
<rect x="172.3" y="157.1" class="st0" width="46.3" height="1"/>
<path class="st0" d="M154.9,44c-0.4-2.7-1-5.3-1.8-7.8l-0.1-0.3c-0.2-0.7-0.5-1.3-0.7-2c-0.1-0.2-0.2-0.5-0.3-0.7
	c-0.2-0.5-0.4-1-0.7-1.6c-0.1-0.3-0.2-0.6-0.4-0.8c-0.2-0.5-0.5-0.9-0.7-1.4c-0.4-0.7-0.8-1.4-1.2-2.1l-0.3-0.6
	c-0.3-0.5-0.6-1-0.9-1.4l-0.4-0.6c-0.2-0.3-0.4-0.5-0.6-0.8c0-0.1-0.1-0.1-0.1-0.2c-1.4-1.9-2.9-3.7-4.6-5.4c-0.7-0.7-1.8-0.7-2.4,0
	c-0.1,0.1-0.2,0.2-0.3,0.3l-4.1,6.8c-0.4,0.7-0.3,1.6,0.2,2.2c3.9,4.4,6.6,9.8,7.9,15.6c0,0.9-0.7,1.7-1.6,1.7c0,0,0,0-0.1,0h-16.5
	c-0.6,0-1.2-0.4-1.5-1c-2.8-6.1-9.2-9.7-15.9-9c-0.6,0.1-1.3-0.2-1.6-0.8l-8.5-14.2c-0.4-0.7-0.2-1.7,0.5-2.2c0.3-0.2,0.7-0.3,1-0.4
	l1.1-0.3c2.4-0.6,4.8-1,7.2-1.1c0.6,0,1.2-0.1,1.9-0.1c7.5-0.1,14.9,2.4,20.8,7c0.7,0.6,1.7,0.5,2.3-0.2c0-0.1,0.1-0.1,0.1-0.2
	l4.1-6.9c0.4-0.7,0.2-1.6-0.4-2.1l-0.1-0.1c0-0.1-0.1-0.1-0.2-0.2c-0.3-0.2-0.6-0.4-0.9-0.6l-0.3-0.2c-5.6-3.7-12-6.2-18.7-7.1
	c-3.8-0.3-3.6-5.2-6.7-5.2s-2.9,4.8-6.7,5.2c-3.1,0.5-6.1,1.2-9.1,2.3l-0.2,0.1c-0.5,0.2-1,0.4-1.5,0.6l-0.1,0
	c-0.5,0.2-1.1,0.5-1.6,0.7l-0.2,0.1c-0.5,0.2-1,0.5-1.6,0.8l-0.2,0.1l-1.6,0.9c-0.2,0.1-0.7,0.4-0.7,0.4c-3.9,2.7-3.2,5.9-1.6,8.7
	l0.5,0.8l7.6,12.6l4,6.7c0.3,0.5,0.3,1.2-0.1,1.8c-0.5,0.7-0.9,1.5-1.3,2.3c-0.2,0.6-0.8,1-1.5,1H77.3c-0.9,0-1.6-0.7-1.6-1.6
	c0,0,0,0,0-0.1c1.3-5.8,4-11.2,7.9-15.6c0.5-0.6,0.6-1.4,0.2-2l-4.2-7c-0.5-0.8-1.5-1-2.2-0.6c-0.1,0.1-0.2,0.1-0.3,0.2
	c-1.7,1.7-3.2,3.5-4.6,5.4c-0.1,0.1-0.1,0.1-0.1,0.2c-0.2,0.3-0.4,0.5-0.6,0.8l-0.4,0.6c-0.3,0.5-0.6,0.9-0.9,1.4l-0.4,0.7
	c-0.3,0.5-0.6,1-0.9,1.6c-0.3,0.6-0.6,1.2-1,1.9c-0.1,0.3-0.2,0.5-0.4,0.8c-0.2,0.5-0.5,1-0.7,1.6c-0.1,0.2-0.2,0.5-0.3,0.7
	c-0.3,0.7-0.5,1.3-0.7,2c0,0.1-0.1,0.2-0.1,0.3c-0.8,2.6-1.5,5.2-1.8,7.9c-0.5,3.6-5.2,3.4-5.2,6.5s4.6,2.9,5.1,6.4
	c0.5,3.6,1.4,7.1,2.8,10.5l0.1,0.2c0.3,0.8,0.6,1.6,1,2.3c0,0,0,0.1,0,0.1c0.4,0.8,0.8,1.6,1.2,2.4l0.1,0.2c0.4,0.7,0.8,1.3,1.1,2
	c0.1,0.2,0.3,0.4,0.4,0.7c0.3,0.5,0.7,1,1,1.5c0.1,0.1,0.2,0.2,0.2,0.4l0.1,0.1c1.4,1.9,2.9,3.7,4.6,5.4c0.6,0.6,1.7,0.6,2.3,0
	c0.1-0.1,0.2-0.2,0.2-0.3l4.2-7.1c0.4-0.6,0.3-1.4-0.2-2c-3.8-4.5-6.5-9.8-7.6-15.6c-0.1-0.9,0.6-1.7,1.5-1.7c0,0,0.1,0,0.1,0h16.5
	c0.6,0,1.2,0.4,1.5,1c0.8,1.7,1.8,3.2,3.1,4.5c3.4,3.4,8,5,12.8,4.5c0.6-0.1,1.3,0.2,1.6,0.8l8.5,14.1c0.3,0.5,0.3,1.2,0,1.7
	c-0.2,0.3-0.5,0.6-0.9,0.7c-3.5,1.2-7.2,1.8-10.9,1.8c-7.6,0.1-15-2.5-21-7.1c-0.7-0.6-1.8-0.5-2.3,0.2c0,0.1-0.1,0.1-0.1,0.2
	L82,85.2c-0.4,0.7-0.2,1.6,0.4,2.1l0.4,0.3c0,0,0,0,0.1,0.1l0.3,0.2c0.5,0.3,0.9,0.6,1.4,1l0.9,0.6c0.5,0.3,1,0.6,1.5,0.9l0.7,0.4
	c0.7,0.4,1.4,0.7,2.1,1.1c0.3,0.1,0.6,0.3,0.9,0.4l1.4,0.6l1,0.4l1.3,0.5l1,0.3c0.5,0.2,1,0.3,1.5,0.4c0.3,0.1,0.6,0.2,0.9,0.2
	c0.7,0.2,1.4,0.4,2.1,0.5l0.3,0.1c0.8,0.2,1.7,0.3,2.6,0.4h0.1c3.8,0.3,3.6,5.2,6.7,5.2s2.9-4.8,6.7-5.2h0.1l1-0.2l1.2-0.2l0.6-0.1
	c0.6-0.1,1.2-0.3,1.8-0.4h0.1c2.9-0.7,5.7-1.7,8.3-3c0,0,1.9-1,2.8-1.5c4.6-2.7,3.9-6.2,2.3-9.1l-0.1-0.2l-2.4-4.3L122.4,61
	c-0.3-0.5-0.3-1.2,0.1-1.8c0.5-0.7,0.9-1.5,1.3-2.3c0.3-0.6,0.8-1,1.5-1h16.5c0.9,0,1.6,0.7,1.6,1.6c0,0.1,0,0.1,0,0.2
	c-1.2,5.7-3.9,11.1-7.8,15.5c-0.5,0.6-0.6,1.5-0.2,2.2l4.1,6.9c0.5,0.8,1.5,1,2.3,0.6c0.1-0.1,0.2-0.1,0.3-0.2
	c1.7-1.7,3.3-3.5,4.7-5.5l0.1-0.1l0.4-0.5c0.2-0.3,0.4-0.5,0.6-0.8c0.3-0.4,0.5-0.8,0.8-1.3c0.4-0.6,0.8-1.3,1.1-1.9
	c0-0.1,0.1-0.1,0.1-0.2c0.4-0.8,0.8-1.6,1.2-2.4l0.1-0.1c0.4-0.8,0.7-1.5,1-2.3v-0.1c0.3-0.8,0.6-1.7,0.9-2.5
	c0.9-2.6,1.5-5.3,1.9-8.1c0.5-3.5,5.1-3.4,5.1-6.4S155.3,47.5,154.9,44 M115.2,58.2l-5.6-4.1l-5.6,4.1l2.1-6.6l-5.6-4.1h6.9l2.1-6.6
	l2.1,6.6h7l-5.6,4.1L115.2,58.2z"/>
</svg>
